<mxfile host="app.diagrams.net" agent="Mozilla/5.0 (X11; Linux x86_64) AppleWebKit/537.36 (KHTML, like Gecko) Chrome/137.0.0.0 Safari/537.36" version="27.1.4">
  <diagram name="Page-1" id="iGd6OytWhDtOL4dOZhWg">
    <mxGraphModel dx="679" dy="391" grid="1" gridSize="10" guides="1" tooltips="1" connect="1" arrows="1" fold="1" page="1" pageScale="1" pageWidth="850" pageHeight="1100" math="0" shadow="0">
      <root>
        <mxCell id="0" />
        <mxCell id="1" parent="0" />
        <mxCell id="l41Wzmn2hDAzVR0o6H7_-14" value="&lt;div&gt;a52da...&lt;/div&gt;&lt;div&gt;admit6...&lt;/div&gt;&lt;div&gt;ncu4o...&lt;/div&gt;&lt;div&gt;coa563...&lt;/div&gt;" style="text;html=1;align=center;verticalAlign=middle;whiteSpace=wrap;rounded=0;fillColor=#fff2cc;strokeColor=#d6b656;" vertex="1" parent="1">
          <mxGeometry x="240" y="262.33" width="60" height="85.34" as="geometry" />
        </mxCell>
        <mxCell id="l41Wzmn2hDAzVR0o6H7_-1" value="&lt;span style=&quot;background-color: transparent; color: light-dark(rgb(0, 0, 0), rgb(255, 255, 255));&quot;&gt;Jim&lt;/span&gt;&lt;div&gt;Jimmy&lt;/div&gt;&lt;div&gt;Jimbo&lt;br&gt;&lt;div&gt;Dwight&lt;/div&gt;&lt;/div&gt;" style="text;html=1;align=center;verticalAlign=middle;whiteSpace=wrap;rounded=0;fillColor=#fff2cc;strokeColor=#d6b656;" vertex="1" parent="1">
          <mxGeometry x="150" y="262.33000000000004" width="60" height="85.34" as="geometry" />
        </mxCell>
        <mxCell id="l41Wzmn2hDAzVR0o6H7_-2" value="" style="endArrow=classic;html=1;rounded=0;" edge="1" parent="1">
          <mxGeometry width="50" height="50" relative="1" as="geometry">
            <mxPoint x="210" y="310" as="sourcePoint" />
            <mxPoint x="240" y="310" as="targetPoint" />
          </mxGeometry>
        </mxCell>
        <mxCell id="l41Wzmn2hDAzVR0o6H7_-7" value="" style="shape=umlActor;verticalLabelPosition=bottom;verticalAlign=top;html=1;outlineConnect=0;" vertex="1" parent="1">
          <mxGeometry x="150" y="202.33" width="30" height="60" as="geometry" />
        </mxCell>
        <mxCell id="l41Wzmn2hDAzVR0o6H7_-9" value="" style="shape=umlActor;verticalLabelPosition=bottom;verticalAlign=top;html=1;outlineConnect=0;" vertex="1" parent="1">
          <mxGeometry x="180" y="202.33" width="30" height="60" as="geometry" />
        </mxCell>
        <mxCell id="l41Wzmn2hDAzVR0o6H7_-10" value="&lt;div&gt;Micheal&lt;/div&gt;Mike&lt;div&gt;Mickey&lt;/div&gt;&lt;div&gt;Ryan&lt;/div&gt;" style="text;html=1;align=center;verticalAlign=middle;whiteSpace=wrap;rounded=0;fillColor=#d5e8d4;strokeColor=#82b366;" vertex="1" parent="1">
          <mxGeometry x="410" y="262.33" width="60" height="85.34" as="geometry" />
        </mxCell>
        <mxCell id="l41Wzmn2hDAzVR0o6H7_-11" value="" style="shape=umlActor;verticalLabelPosition=bottom;verticalAlign=top;html=1;outlineConnect=0;" vertex="1" parent="1">
          <mxGeometry x="410" y="202.33" width="30" height="60" as="geometry" />
        </mxCell>
        <mxCell id="l41Wzmn2hDAzVR0o6H7_-12" value="" style="shape=umlActor;verticalLabelPosition=bottom;verticalAlign=top;html=1;outlineConnect=0;" vertex="1" parent="1">
          <mxGeometry x="440" y="202.33" width="30" height="60" as="geometry" />
        </mxCell>
        <mxCell id="l41Wzmn2hDAzVR0o6H7_-13" value="" style="sketch=0;pointerEvents=1;shadow=0;dashed=0;html=1;strokeColor=none;fillColor=#505050;labelPosition=center;verticalLabelPosition=bottom;verticalAlign=top;outlineConnect=0;align=center;shape=mxgraph.office.security.lock_protected;" vertex="1" parent="1">
          <mxGeometry x="230" y="335" width="20" height="20" as="geometry" />
        </mxCell>
        <mxCell id="l41Wzmn2hDAzVR0o6H7_-15" value="&lt;div&gt;b632h5...&lt;/div&gt;&lt;div&gt;lo5lqoa...&lt;/div&gt;&lt;div&gt;09kniql...&lt;/div&gt;&lt;div&gt;5ihen9...&lt;/div&gt;" style="text;html=1;align=center;verticalAlign=middle;whiteSpace=wrap;rounded=0;fillColor=#d5e8d4;strokeColor=#82b366;" vertex="1" parent="1">
          <mxGeometry x="320" y="262.33" width="60" height="85.34" as="geometry" />
        </mxCell>
        <mxCell id="l41Wzmn2hDAzVR0o6H7_-17" value="No match found!" style="text;html=1;align=center;verticalAlign=middle;whiteSpace=wrap;rounded=0;" vertex="1" parent="1">
          <mxGeometry x="260" y="360" width="120" height="30" as="geometry" />
        </mxCell>
        <mxCell id="l41Wzmn2hDAzVR0o6H7_-19" value="" style="endArrow=classic;html=1;rounded=0;exitX=1;exitY=1;exitDx=0;exitDy=0;" edge="1" parent="1" source="l41Wzmn2hDAzVR0o6H7_-14" target="l41Wzmn2hDAzVR0o6H7_-17">
          <mxGeometry width="50" height="50" relative="1" as="geometry">
            <mxPoint x="320" y="360" as="sourcePoint" />
            <mxPoint x="310" y="260" as="targetPoint" />
          </mxGeometry>
        </mxCell>
        <mxCell id="l41Wzmn2hDAzVR0o6H7_-20" value="" style="endArrow=classic;html=1;rounded=0;exitX=0;exitY=1;exitDx=0;exitDy=0;entryX=0.437;entryY=0.014;entryDx=0;entryDy=0;entryPerimeter=0;" edge="1" parent="1" source="l41Wzmn2hDAzVR0o6H7_-15" target="l41Wzmn2hDAzVR0o6H7_-17">
          <mxGeometry width="50" height="50" relative="1" as="geometry">
            <mxPoint x="260" y="310" as="sourcePoint" />
            <mxPoint x="310" y="260" as="targetPoint" />
          </mxGeometry>
        </mxCell>
        <mxCell id="l41Wzmn2hDAzVR0o6H7_-21" value="Same Name !?" style="text;html=1;align=center;verticalAlign=middle;whiteSpace=wrap;rounded=0;" vertex="1" parent="1">
          <mxGeometry x="270" y="232.33" width="90" height="30" as="geometry" />
        </mxCell>
        <mxCell id="l41Wzmn2hDAzVR0o6H7_-22" value="" style="endArrow=classic;html=1;rounded=0;exitX=-0.003;exitY=0.546;exitDx=0;exitDy=0;exitPerimeter=0;entryX=1.002;entryY=0.549;entryDx=0;entryDy=0;entryPerimeter=0;" edge="1" parent="1" source="l41Wzmn2hDAzVR0o6H7_-10" target="l41Wzmn2hDAzVR0o6H7_-15">
          <mxGeometry width="50" height="50" relative="1" as="geometry">
            <mxPoint x="300" y="330" as="sourcePoint" />
            <mxPoint x="350" y="280" as="targetPoint" />
          </mxGeometry>
        </mxCell>
        <mxCell id="l41Wzmn2hDAzVR0o6H7_-23" value="" style="sketch=0;pointerEvents=1;shadow=0;dashed=0;html=1;strokeColor=none;fillColor=#505050;labelPosition=center;verticalLabelPosition=bottom;verticalAlign=top;outlineConnect=0;align=center;shape=mxgraph.office.security.lock_protected;" vertex="1" parent="1">
          <mxGeometry x="370" y="335" width="20" height="20" as="geometry" />
        </mxCell>
      </root>
    </mxGraphModel>
  </diagram>
</mxfile>
